<?xml version="1.0" ?><!DOCTYPE svg  PUBLIC '-//W3C//DTD SVG 1.1//EN'  'http://www.w3.org/Graphics/SVG/1.1/DTD/svg11.dtd'><svg enable-background="new 0 0 32 32" height="32px" id="_x3C_Layer_x3E_" version="1.1" viewBox="0 0 32 32" width="32px" xml:space="preserve" xmlns="http://www.w3.org/2000/svg" xmlns:xlink="http://www.w3.org/1999/xlink"><g id="arrow_x2C__down_4_"><g id="share_1_"><path d="M22.001,31.005c-0.162,0-0.314-0.079-0.408-0.211l-8.5-12c-0.107-0.153-0.122-0.353-0.036-0.519    s0.258-0.271,0.444-0.271h2.5v-1.5c0-5.008-1.136-8.839-3.375-11.386c-0.182-0.208-0.161-0.523,0.046-0.706    s0.522-0.162,0.706,0.045c2.404,2.735,3.623,6.788,3.623,12.046v2c0,0.276-0.224,0.5-0.5,0.5h-2.033l7.533,10.635l7.533-10.635    h-2.033c-0.276,0-0.5-0.224-0.5-0.5v-1c0-10.285-5.552-15.5-16.5-15.5l-3.5,0.004C7,2.009,7,2.009,7,2.009    c-0.276,0-0.5-0.224-0.5-0.5s0.224-0.5,0.499-0.5L10.5,1.005c11.613,0,17.501,5.551,17.501,16.5v0.5h2.5    c0.187,0,0.358,0.104,0.444,0.271s0.071,0.366-0.036,0.519l-8.5,12C22.315,30.926,22.163,31.005,22.001,31.005z" fill="#263238"/><g id="XMLID_940_"><g id="XMLID_987_"><g id="XMLID_988_"><g id="XMLID_989_"><g id="XMLID_990_"><g id="XMLID_998_"><path d="M11.5,4.009c-0.275,0-0.5-0.225-0.5-0.5l0,0c0-0.275,0.225-0.5,0.5-0.5l0,0          c0.275,0,0.5,0.225,0.5,0.5l0,0C12,3.784,11.775,4.009,11.5,4.009L11.5,4.009z" fill="#263238" id="XMLID_1000_"/></g></g></g></g></g></g></g><path d="M7.5,2.009h-6c-0.276,0-0.5-0.224-0.5-0.5s0.224-0.5,0.5-0.5h6c0.276,0,0.5,0.224,0.5,0.5   S7.776,2.009,7.5,2.009z" fill="#263238"/></g></svg>